<?xml version="1.0" encoding="UTF-8" standalone="no"?>
<!-- Uploaded to: SVG Repo, www.svgrepo.com, Generator: SVG Repo Mixer Tools -->

<svg
   width="800px"
   height="800px"
   viewBox="0 0 16 16"
   fill="none"
   version="1.1"
   id="svg1"
   xml:space="preserve"
   xmlns="http://www.w3.org/2000/svg"
   xmlns:svg="http://www.w3.org/2000/svg"><defs
   id="defs1" /><path
   id="path1"
   style="fill:#ffffff;stroke-width:0.600445"
   d="M 12.997773 0 C 11.339691 0 9.9955469 1.3441451 9.9955469 3.0022266 C 9.9955469 3.2772425 10.032541 3.543634 10.101797 3.7966797 L 6.3928906 7.5055469 L 2.5025 11.375195 L 1.5001563 11.375195 C 0.6729537 11.375195 0 12.04811 0 12.875312 C 0 13.702515 0.6729537 14.375469 1.5001563 14.375469 L 1.6244141 14.375469 L 1.6244141 14.499609 C 1.6244141 15.326687 2.3030006 15.992969 3.1300781 15.992969 C 3.9572807 15.992969 4.5319531 15.406296 4.5319531 14.579219 L 4.5319531 13.576875 L 8.4944531 9.6071094 L 12.20332 5.8982031 C 12.456335 5.9674585 12.722769 6.0044531 12.997773 6.0044531 C 14.655842 6.0044531 16 4.6603081 16 3.0022266 C 16 2.5616979 15.905115 2.1433328 15.734648 1.7664453 L 13.898438 3.6026562 L 12.397344 3.6026562 L 12.397344 2.1015625 L 14.233555 0.2653125 C 13.856656 0.09486952 13.438319 2.3684758e-17 12.997773 0 z " />

</svg>
